<svg width="243" height="68" viewBox="0 0 243 68" fill="none" xmlns="http://www.w3.org/2000/svg">
<rect width="243" height="67.3866" rx="23" fill="url(#paint0_linear_97_297)"/>
<path d="M220.138 41.6447C218.792 41.6447 217.698 41.3417 216.856 40.7358C216.015 40.1298 215.503 39.2781 215.321 38.1806L217.805 37.7969C217.933 38.3355 218.216 38.7597 218.654 39.0694C219.091 39.3791 219.644 39.534 220.31 39.534C220.896 39.534 221.347 39.4195 221.663 39.1906C221.987 38.9549 222.148 38.6351 222.148 38.2311C222.148 37.982 222.088 37.7834 221.966 37.6353C221.852 37.4804 221.596 37.3323 221.199 37.1909C220.802 37.0495 220.192 36.8711 219.371 36.6556C218.455 36.4133 217.728 36.154 217.189 35.878C216.651 35.5952 216.264 35.2619 216.028 34.8782C215.792 34.4944 215.675 34.0298 215.675 33.4845C215.675 32.8044 215.853 32.2119 216.21 31.707C216.567 31.202 217.065 30.8149 217.705 30.5456C218.344 30.2695 219.098 30.1315 219.967 30.1315C220.815 30.1315 221.566 30.2628 222.219 30.5254C222.879 30.7879 223.411 31.1616 223.815 31.6464C224.219 32.1312 224.468 32.7001 224.562 33.3532L222.078 33.7975C222.017 33.333 221.805 32.966 221.441 32.6967C221.084 32.4274 220.606 32.2759 220.007 32.2422C219.435 32.2086 218.974 32.2961 218.624 32.5048C218.273 32.7068 218.098 32.993 218.098 33.3633C218.098 33.572 218.169 33.7504 218.31 33.8985C218.452 34.0467 218.735 34.1948 219.159 34.3429C219.59 34.491 220.229 34.6728 221.078 34.8883C221.946 35.1105 222.64 35.3663 223.158 35.6558C223.683 35.9386 224.06 36.2786 224.289 36.6758C224.525 37.0731 224.643 37.5545 224.643 38.12C224.643 39.2175 224.242 40.0793 223.441 40.7055C222.646 41.3316 221.546 41.6447 220.138 41.6447Z" fill="#00FF9D"/>
<path d="M207.834 41.6447C206.83 41.6447 205.955 41.3922 205.208 40.8872C204.46 40.3823 203.881 39.6955 203.471 38.827C203.06 37.9584 202.855 36.9788 202.855 35.8881C202.855 34.7839 203.06 33.8009 203.471 32.9391C203.888 32.0705 204.477 31.3871 205.238 30.8889C205.999 30.3839 206.894 30.1315 207.925 30.1315C208.961 30.1315 209.83 30.3839 210.53 30.8889C211.237 31.3871 211.772 32.0705 212.136 32.9391C212.5 33.8076 212.681 34.7906 212.681 35.8881C212.681 36.9721 212.5 37.9517 212.136 38.827C211.772 39.6955 211.23 40.3823 210.51 40.8872C209.79 41.3922 208.897 41.6447 207.834 41.6447ZM208.207 39.4632C208.86 39.4632 209.386 39.3151 209.783 39.0189C210.187 38.7159 210.48 38.2951 210.661 37.7565C210.85 37.2178 210.944 36.595 210.944 35.8881C210.944 35.1744 210.85 34.5516 210.661 34.0197C210.48 33.4811 210.194 33.0636 209.803 32.7674C209.413 32.4644 208.908 32.3129 208.288 32.3129C207.635 32.3129 207.096 32.4745 206.672 32.7977C206.248 33.1141 205.935 33.545 205.733 34.0904C205.531 34.629 205.43 35.2283 205.43 35.8881C205.43 36.5546 205.528 37.1606 205.723 37.706C205.925 38.2446 206.231 38.6721 206.642 38.9886C207.053 39.305 207.574 39.4632 208.207 39.4632ZM210.944 41.3417V33.6864H210.641V26.7987H213.095V41.3417H210.944Z" fill="#00FF9D"/>
<path d="M195.792 41.6447C194.701 41.6447 193.749 41.399 192.934 40.9075C192.119 40.416 191.486 39.7393 191.035 38.8775C190.591 38.009 190.369 37.0125 190.369 35.8881C190.369 34.7435 190.598 33.7403 191.055 32.8785C191.513 32.0167 192.149 31.3434 192.964 30.8586C193.779 30.3739 194.721 30.1315 195.792 30.1315C196.889 30.1315 197.845 30.3772 198.66 30.8687C199.475 31.3602 200.108 32.0403 200.559 32.9088C201.01 33.7706 201.235 34.7637 201.235 35.8881C201.235 37.0192 201.007 38.0191 200.549 38.8876C200.098 39.7494 199.465 40.4261 198.65 40.9176C197.835 41.4023 196.883 41.6447 195.792 41.6447ZM195.792 39.3623C196.761 39.3623 197.482 39.0391 197.953 38.3927C198.425 37.7464 198.66 36.9115 198.66 35.8881C198.66 34.831 198.421 33.9894 197.943 33.3633C197.465 32.7304 196.748 32.4139 195.792 32.4139C195.139 32.4139 194.6 32.5621 194.176 32.8583C193.759 33.1478 193.449 33.5552 193.247 34.0803C193.045 34.5988 192.944 35.2013 192.944 35.8881C192.944 36.9452 193.183 37.7901 193.661 38.423C194.146 39.0492 194.856 39.3623 195.792 39.3623Z" fill="#00FF9D"/>
<path d="M178.252 41.3417V26.7987H184.261C184.402 26.7987 184.584 26.8054 184.806 26.8189C185.028 26.8256 185.234 26.8458 185.422 26.8795C186.264 27.0074 186.957 27.2868 187.503 27.7177C188.055 28.1486 188.462 28.694 188.725 29.3538C188.994 30.0069 189.129 30.7341 189.129 31.5353C189.129 32.3298 188.994 33.0569 188.725 33.7167C188.455 34.3698 188.045 34.9118 187.493 35.3427C186.947 35.7736 186.257 36.053 185.422 36.181C185.234 36.2079 185.025 36.2281 184.796 36.2416C184.574 36.255 184.396 36.2618 184.261 36.2618H180.686V41.3417H178.252ZM180.686 33.9894H184.16C184.295 33.9894 184.446 33.9827 184.614 33.9692C184.783 33.9557 184.938 33.9288 185.079 33.8884C185.483 33.7874 185.799 33.609 186.028 33.3532C186.264 33.0973 186.429 32.8078 186.523 32.4846C186.624 32.1614 186.675 31.845 186.675 31.5353C186.675 31.2256 186.624 30.9091 186.523 30.5859C186.429 30.256 186.264 29.9631 186.028 29.7073C185.799 29.4514 185.483 29.273 185.079 29.172C184.938 29.1316 184.783 29.1081 184.614 29.1013C184.446 29.0879 184.295 29.0811 184.16 29.0811H180.686V33.9894Z" fill="#00FF9D"/>
<path d="M169.664 41.6447C168.876 41.6447 168.21 41.4966 167.664 41.2003C167.119 40.8974 166.705 40.4968 166.422 39.9985C166.146 39.5003 166.008 38.9516 166.008 38.3523C166.008 37.8272 166.095 37.3559 166.271 36.9384C166.446 36.5143 166.715 36.1507 167.078 35.8477C167.442 35.538 167.913 35.2855 168.492 35.0903C168.93 34.9489 169.442 34.8209 170.027 34.7065C170.62 34.592 171.26 34.4877 171.946 34.3934C172.64 34.2924 173.364 34.1847 174.118 34.0702L173.249 34.5651C173.256 33.811 173.088 33.2555 172.744 32.8987C172.401 32.5419 171.822 32.3634 171.007 32.3634C170.516 32.3634 170.041 32.4779 169.583 32.7068C169.125 32.9357 168.805 33.3296 168.624 33.8884L166.402 33.1916C166.671 32.2692 167.183 31.5286 167.937 30.9697C168.698 30.4109 169.721 30.1315 171.007 30.1315C171.977 30.1315 172.828 30.2897 173.562 30.6062C174.303 30.9226 174.852 31.441 175.208 32.1614C175.404 32.5452 175.521 32.9391 175.562 33.3431C175.602 33.7403 175.622 34.1746 175.622 34.6459V41.3417H173.492V38.9785L173.845 39.3623C173.354 40.15 172.778 40.729 172.118 41.0993C171.465 41.4629 170.647 41.6447 169.664 41.6447ZM170.149 39.7056C170.701 39.7056 171.172 39.608 171.563 39.4128C171.953 39.2175 172.263 38.9785 172.492 38.6957C172.727 38.4129 172.886 38.147 172.966 37.8979C173.094 37.5881 173.165 37.2347 173.178 36.8374C173.199 36.4335 173.209 36.1069 173.209 35.8578L173.956 36.08C173.222 36.1944 172.593 36.2954 172.068 36.383C171.542 36.4705 171.091 36.5547 170.714 36.6354C170.337 36.7095 170.004 36.7937 169.714 36.8879C169.432 36.9889 169.193 37.1067 168.997 37.2414C168.802 37.3761 168.651 37.5309 168.543 37.706C168.442 37.881 168.391 38.0864 168.391 38.322C168.391 38.5913 168.459 38.8304 168.593 39.0391C168.728 39.2411 168.923 39.4027 169.179 39.5239C169.442 39.645 169.765 39.7056 170.149 39.7056Z" fill="#00FF9D"/>
<path d="M155.725 41.3417L155.745 26.7987H158.21V35.6861L162.199 30.4344H165.239L161.007 35.8881L165.602 41.3417H162.381L158.21 36.0901V41.3417H155.725Z" fill="#00FF9D"/>
<path d="M150.286 28.7782V26.5462H152.72V28.7782H150.286ZM150.286 41.3417V30.4345H152.72V41.3417H150.286Z" fill="#00FF9D"/>
<path d="M137.184 41.3417V26.7987H143.193C143.334 26.7987 143.516 26.8054 143.738 26.8189C143.96 26.8256 144.166 26.8458 144.354 26.8795C145.196 27.0074 145.889 27.2868 146.435 27.7177C146.987 28.1486 147.394 28.694 147.657 29.3538C147.926 30.0069 148.061 30.7341 148.061 31.5353C148.061 32.3298 147.926 33.0569 147.657 33.7167C147.388 34.3698 146.977 34.9118 146.425 35.3427C145.879 35.7736 145.189 36.053 144.354 36.181C144.166 36.2079 143.957 36.2281 143.728 36.2416C143.506 36.255 143.328 36.2618 143.193 36.2618H139.618V41.3417H137.184ZM139.618 33.9894H143.092C143.227 33.9894 143.378 33.9827 143.546 33.9692C143.715 33.9557 143.87 33.9288 144.011 33.8884C144.415 33.7874 144.731 33.609 144.96 33.3532C145.196 33.0973 145.361 32.8078 145.455 32.4846C145.556 32.1614 145.607 31.845 145.607 31.5353C145.607 31.2256 145.556 30.9091 145.455 30.5859C145.361 30.256 145.196 29.9631 144.96 29.7073C144.731 29.4514 144.415 29.273 144.011 29.172C143.87 29.1316 143.715 29.1081 143.546 29.1013C143.378 29.0879 143.227 29.0811 143.092 29.0811H139.618V33.9894Z" fill="#00FF9D"/>
<path d="M128.04 41.3417V36.0901C128.04 35.7467 128.017 35.3663 127.97 34.9489C127.923 34.5314 127.812 34.1308 127.637 33.747C127.468 33.3565 127.212 33.0367 126.869 32.7876C126.532 32.5385 126.074 32.4139 125.495 32.4139C125.186 32.4139 124.879 32.4644 124.576 32.5654C124.273 32.6664 123.997 32.8415 123.748 33.0906C123.506 33.333 123.311 33.6696 123.163 34.1005C123.014 34.5247 122.94 35.0701 122.94 35.7366L121.496 35.1205C121.496 34.1914 121.675 33.3498 122.031 32.5957C122.395 31.8416 122.927 31.2424 123.627 30.798C124.327 30.3469 125.189 30.1214 126.213 30.1214C127.02 30.1214 127.687 30.256 128.212 30.5254C128.737 30.7947 129.155 31.138 129.464 31.5555C129.774 31.9729 130.003 32.4173 130.151 32.8886C130.299 33.3599 130.394 33.8076 130.434 34.2318C130.481 34.6492 130.505 34.9893 130.505 35.2518V41.3417H128.04ZM120.476 41.3417V30.4345H122.647V33.8177H122.94V41.3417H120.476Z" fill="white"/>
<path d="M112.828 41.6447C111.737 41.6447 110.784 41.399 109.969 40.9075C109.155 40.416 108.522 39.7393 108.071 38.8775C107.626 38.009 107.404 37.0125 107.404 35.8881C107.404 34.7435 107.633 33.7403 108.091 32.8785C108.549 32.0167 109.185 31.3434 110 30.8586C110.814 30.3739 111.757 30.1315 112.828 30.1315C113.925 30.1315 114.881 30.3772 115.696 30.8687C116.51 31.3602 117.143 32.0403 117.594 32.9088C118.046 33.7706 118.271 34.7637 118.271 35.8881C118.271 37.0192 118.042 38.0191 117.584 38.8876C117.133 39.7494 116.5 40.4261 115.686 40.9176C114.871 41.4023 113.918 41.6447 112.828 41.6447ZM112.828 39.3623C113.797 39.3623 114.518 39.0391 114.989 38.3927C115.46 37.7464 115.696 36.9115 115.696 35.8881C115.696 34.831 115.457 33.9894 114.979 33.3633C114.501 32.7304 113.784 32.4139 112.828 32.4139C112.175 32.4139 111.636 32.5621 111.212 32.8583C110.794 33.1478 110.485 33.5552 110.283 34.0803C110.081 34.5988 109.98 35.2013 109.98 35.8881C109.98 36.9452 110.219 37.7901 110.697 38.423C111.181 39.0492 111.892 39.3623 112.828 39.3623Z" fill="white"/>
<path d="M98.8669 41.3417V36.0901C98.8669 35.7467 98.8433 35.3663 98.7962 34.9489C98.7491 34.5314 98.638 34.1308 98.4629 33.747C98.2946 33.3565 98.0387 33.0367 97.6954 32.7876C97.3587 32.5385 96.9009 32.4139 96.3218 32.4139C96.0121 32.4139 95.7058 32.4644 95.4028 32.5654C95.0998 32.6664 94.8238 32.8415 94.5747 33.0906C94.3323 33.333 94.137 33.6696 93.9889 34.1005C93.8408 34.5247 93.7667 35.0701 93.7667 35.7366L92.3225 35.1205C92.3225 34.1914 92.5009 33.3498 92.8578 32.5957C93.2214 31.8416 93.7533 31.2424 94.4535 30.798C95.1537 30.3469 96.0155 30.1214 97.0389 30.1214C97.8468 30.1214 98.5134 30.256 99.0386 30.5254C99.5637 30.7947 99.9812 31.138 100.291 31.5555C100.601 31.9729 100.83 32.4173 100.978 32.8886C101.126 33.3599 101.22 33.8076 101.26 34.2318C101.308 34.6492 101.331 34.9893 101.331 35.2518V41.3417H98.8669ZM91.3025 41.3417V30.4345H93.4738V33.8177H93.7667V41.3417H91.3025Z" fill="white"/>
<path d="M82.769 41.6548C81.9611 41.6548 81.2945 41.5202 80.7694 41.2508C80.2442 40.9815 79.8268 40.6381 79.517 40.2207C79.2073 39.8033 78.9784 39.3589 78.8303 38.8876C78.6822 38.4163 78.5845 37.9719 78.5374 37.5545C78.497 37.1303 78.4768 36.7869 78.4768 36.5244V30.4345H80.941V35.6861C80.941 36.0228 80.9646 36.4032 81.0117 36.8273C81.0589 37.2448 81.1666 37.6487 81.3349 38.0393C81.51 38.423 81.7658 38.7395 82.1025 38.9886C82.4458 39.2377 82.907 39.3623 83.4861 39.3623C83.7958 39.3623 84.1021 39.3118 84.4051 39.2108C84.7081 39.1098 84.9808 38.9381 85.2232 38.6957C85.4723 38.4466 85.6709 38.1066 85.819 37.6757C85.9671 37.2448 86.0412 36.6994 86.0412 36.0396L87.4854 36.6556C87.4854 37.5848 87.3036 38.4264 86.94 39.1805C86.5832 39.9346 86.0547 40.5372 85.3545 40.9883C84.6542 41.4326 83.7924 41.6548 82.769 41.6548ZM86.3341 41.3417V37.9585H86.0412V30.4345H88.4852V41.3417H86.3341Z" fill="white"/>
<path d="M65.3445 41.3417V26.7987H71.3536C71.495 26.7987 71.6768 26.8054 71.899 26.8189C72.1212 26.8256 72.3265 26.8458 72.5151 26.8795C73.3567 27.0074 74.0502 27.2868 74.5955 27.7177C75.1476 28.1486 75.555 28.694 75.8175 29.3538C76.0869 30.0069 76.2215 30.7341 76.2215 31.5353C76.2215 32.7203 75.9219 33.7403 75.3227 34.5954C74.7234 35.4437 73.8044 35.9689 72.5656 36.1709L71.5253 36.2618H67.7785V41.3417H65.3445ZM73.6967 41.3417L70.8285 35.4235L73.3028 34.8781L76.4538 41.3417H73.6967ZM67.7785 33.9894H71.2526C71.3873 33.9894 71.5388 33.9827 71.7071 33.9692C71.8754 33.9557 72.0303 33.9288 72.1717 33.8884C72.5757 33.7874 72.8921 33.609 73.121 33.3532C73.3567 33.0973 73.5216 32.8078 73.6159 32.4846C73.7169 32.1614 73.7674 31.845 73.7674 31.5353C73.7674 31.2256 73.7169 30.9091 73.6159 30.5859C73.5216 30.256 73.3567 29.9631 73.121 29.7073C72.8921 29.4514 72.5757 29.273 72.1717 29.172C72.0303 29.1316 71.8754 29.1081 71.7071 29.1013C71.5388 29.0879 71.3873 29.0811 71.2526 29.0811H67.7785V33.9894Z" fill="white"/>
<path d="M53.6029 41.0574C53.3002 41.6604 52.7958 41.8613 52.1904 41.8613C42.1006 41.8613 32.0108 41.8613 21.921 41.8613C19.2977 41.8613 17.078 40.1531 16.4726 37.5404C15.7663 34.5258 17.8851 31.5112 20.9121 31.0087C21.2148 31.0087 21.4166 30.9082 21.7193 30.9082C22.4255 30.9082 22.93 30.4058 22.93 29.8029C22.93 29.1999 22.4255 28.6975 21.7193 28.6975C20.3067 28.6975 18.995 28.6975 17.5824 28.6975C16.8762 28.6975 16.3717 28.2956 16.3717 27.5922C16.3717 27.1902 16.8762 26.6878 17.5824 26.6878C18.995 26.6878 20.4076 26.6878 21.921 26.6878C23.7372 26.6878 25.1498 28.0946 25.1498 29.9034C25.1498 31.7121 23.7372 33.2194 21.921 33.2194C20.1049 33.2194 18.7932 34.4253 18.5914 36.1336C18.3896 37.6409 19.3986 39.5501 21.5175 39.6506C22.7282 39.7511 23.8381 39.6506 25.0489 39.6506C25.5534 35.1287 27.5713 31.6116 31.4054 28.999C33.6252 27.4917 36.0467 26.7883 38.5692 26.5873C38.4683 27.0897 38.2665 27.5922 38.2665 28.0946C37.8629 31.0087 40.0826 33.7219 43.0087 34.1238C43.3114 34.1238 43.5132 34.2243 43.8159 34.1238C44.4212 34.0233 44.8248 33.5209 44.8248 33.0185C44.8248 32.4155 44.3203 32.0136 43.715 32.0136C42.4033 31.9131 41.3943 31.3102 40.7889 30.2048C40.1835 28.999 40.3853 27.5922 41.3943 26.4868C42.2015 25.6829 43.5132 25.2809 44.7239 25.6829C45.9347 26.0848 46.8428 27.2907 46.9437 28.597C46.9437 28.6975 47.0446 28.8985 47.1455 28.999C50.3742 31.2097 52.3922 34.2243 53.1994 38.0428C53.3003 38.5453 53.4011 39.1482 53.502 39.6506C53.6029 40.1531 53.6029 40.6555 53.6029 41.0574ZM48.0536 35.4302C48.0536 34.8272 47.5491 34.3248 46.9437 34.3248C46.3383 34.3248 45.8338 34.8272 45.8338 35.4302C45.8338 36.0331 46.3383 36.5355 46.9437 36.5355C47.5491 36.435 48.0536 35.9326 48.0536 35.4302Z" fill="white"/>
<defs>
<linearGradient id="paint0_linear_97_297" x1="4.27817" y1="10.2545" x2="237.55" y2="81.5536" gradientUnits="userSpaceOnUse">
<stop stop-color="#101010"/>
<stop offset="1" stop-color="#230219"/>
</linearGradient>
</defs>
</svg>
